P2
2
2
255
0 0 
183 0 
